# File created by Blade
# Date/Time:  Wed Apr 08 17:39:41 2015
#---------------------------------------------------------
:version 1.10
:name HOM
:units
  mass 1.0
  length 1.000000
  angle deg
:documentation
     Acclaim Skeleton File
:root
   axis xyz
   order TX TY TZ RX RY RZ
   position 0.000000 0.000000 0.000000
   orientation 0 0 0
:bonedata
   begin
      id 1
      name Spine_dum
      direction 0.000000 1.000000 0.000000
      length 5.893853
      axis 0.0 0.0 0.0 xyz
   end
   begin
      id 2
      name LeftUpLeg_dum
      direction 1.000000 0.000000 0.000000
      length 3.697939
      axis 0.0 0.0 0.0 xyz
   end
   begin
      id 3
      name RightUpLeg_dum
      direction -1.000000 0.000000 0.000000
      length 3.697939
      axis 0.0 0.0 0.0 xyz
   end
   begin
      id 4
      name Spine
      direction 0.000000 1.000000 0.000000
      length 0.000000
      axis 0.0 0.0 0.0 xyz
      dof rx ry rz
   end
   begin
      id 5
      name Spine_dum1
      direction 0.000000 1.000000 0.000000
      length 16.447146
      axis 0.0 0.0 0.0 xyz
   end
   begin
      id 6
      name Spine_dum2
      direction 0.000000 1.000000 0.000000
      length 10.900383
      axis 0.0 0.0 0.0 xyz
   end
   begin
      id 7
      name Spine_dum3
      direction 0.000000 1.000000 0.000000
      length 10.900383
      axis 0.0 0.0 0.0 xyz
   end
   begin
      id 8
      name Head
      direction 0.000000 1.000000 0.000000
      length 4.527550
      axis 0.0 0.0 0.0 xyz
      dof rx ry rz
   end
   begin
      id 9
      name LeftShoulder
      direction 1.000000 0.000000 0.000000
      length 8.219464
      axis 0.0 0.0 -90.0 xyz
      dof rx ry rz
   end
   begin
      id 10
      name LeftArm
      direction 1.000000 0.000000 0.000000
      length 11.094937
      axis 0.0 0.0 -90.0 xyz
      dof rx ry rz
   end
   begin
      id 11
      name LeftForeArm
      direction 1.000000 0.000000 0.000000
      length 9.103875
      axis 0.0 0.0 -90.0 xyz
      dof ry rz rx
   end
   begin
      id 12
      name LeftHand
      direction 0.000000 0.000000 0.000000
      length 0.000000
      axis 0.0 0.0 -90.0 xyz
      dof rx ry rz
   end
   begin
      id 13
      name LeftHand_dum1
      direction 0.000000 0.000000 0.000000
      length 0.000000
      axis 0.0 0.0 -90.0 xyz
   end
   begin
      id 14
      name LeftHand_dum2
      direction 1.000000 0.000000 0.000000
      length 3.937000
      axis 0.0 0.0 -90.0 xyz
   end
   begin
      id 15
      name LeftHandThumb1
      direction 0.000000 0.000000 1.000000
      length 3.937000
      axis 0.0 0.0 -90.0 xyz
      dof rx rz ry
   end
   begin
      id 16
      name RightShoulder
      direction -1.000000 0.000000 0.000000
      length 8.219464
      axis 0.0 0.0 90.0 xyz
      dof rx ry rz
   end
   begin
      id 17
      name RightArm
      direction -1.000000 0.000000 0.000000
      length 11.094937
      axis 0.0 0.0 90.0 xyz
      dof rx ry rz
   end
   begin
      id 18
      name RightForeArm
      direction -1.000000 0.000000 0.000000
      length 9.103875
      axis 0.0 0.0 90.0 xyz
      dof ry rz rx
   end
   begin
      id 19
      name RightHand
      direction 0.000000 0.000000 0.000000
      length 0.000000
      axis 0.0 0.0 90.0 xyz
      dof rx ry rz
   end
   begin
      id 20
      name RightHand_dum1
      direction 0.000000 0.000000 0.000000
      length 0.000000
      axis 0.0 0.0 90.0 xyz
   end
   begin
      id 21
      name RightHand_dum2
      direction -1.000000 0.000000 0.000000
      length 3.937000
      axis 0.0 0.0 90.0 xyz
   end
   begin
      id 22
      name RightHandThumb1
      direction 0.000000 0.000000 1.000000
      length 3.937000
      axis 0.0 0.0 90.0 xyz
      dof rx rz ry
   end
   begin
      id 23
      name LeftUpLeg
      direction 0.000000 -1.000000 0.000000
      length 16.181467
      axis 0.0 0.0 0.0 xyz
      dof rx ry rz
   end
   begin
      id 24
      name LeftLeg
      direction 0.000000 -1.000000 0.000000
      length 16.501392
      axis 0.0 0.0 0.0 xyz
      dof rx ry rz
   end
   begin
      id 25
      name LeftFoot
      direction 0.000000 -0.258819 0.965926
      length 6.408245
      axis 15.0 0.0 0.0 xyz
      dof rx ry rz
   end
   begin
      id 26
      name LeftToeBase
      direction 0.000000 0.000000 1.000000
      length 2.952750
      axis 0.0 0.0 0.0 xyz
      dof rx ry rz
   end
   begin
      id 27
      name RightUpLeg
      direction 0.000000 -1.000000 0.000000
      length 16.181467
      axis 0.0 0.0 0.0 xyz
      dof rx ry rz
   end
   begin
      id 28
      name RightLeg
      direction 0.000000 -1.000000 0.000000
      length 16.501392
      axis 0.0 0.0 0.0 xyz
      dof rx ry rz
   end
   begin
      id 29
      name RightFoot
      direction 0.000000 -0.258819 0.965926
      length 6.408245
      axis 15.0 0.0 0.0 xyz
      dof rx ry rz
   end
   begin
      id 30
      name RightToeBase
      direction 0.000000 0.000000 1.000000
      length 2.952750
      axis 0.0 0.0 0.0 xyz
      dof rx ry rz
   end
:hierarchy
   begin
      root Spine_dum LeftUpLeg_dum RightUpLeg_dum
      Spine_dum Spine
      LeftUpLeg_dum LeftUpLeg
      RightUpLeg_dum RightUpLeg
      Spine Spine_dum1 Spine_dum2 Spine_dum3
      Spine_dum1 Head
      Spine_dum2 LeftShoulder
      Spine_dum3 RightShoulder
      LeftShoulder LeftArm
      LeftArm LeftForeArm
      LeftForeArm LeftHand
      LeftHand LeftHand_dum1 LeftHand_dum2
      LeftHand_dum1 LeftHandThumb1
      RightShoulder RightArm
      RightArm RightForeArm
      RightForeArm RightHand
      RightHand RightHand_dum1 RightHand_dum2
      RightHand_dum1 RightHandThumb1
      LeftUpLeg LeftLeg
      LeftLeg LeftFoot
      LeftFoot LeftToeBase
      RightUpLeg RightLeg
      RightLeg RightFoot
      RightFoot RightToeBase
   end

# File created by Blade
# Date/Time:  Wed Apr 08 17:39:35 2015
# Frame Rate: 120.000 fps
#------------------------------------------------------
:FULLY-SPECIFIED
:DEGREES
131
root 7.263465 36.080894 2.703149 10.161958 -62.320442 -347.757501
Spine -22.207745 -6.048150 -3.835705
Head 20.128869 15.509176 7.253505
LeftShoulder -10.951370 23.218219 14.741440
LeftArm 13.040855 2.018187 -77.852637
LeftForeArm 15.688710 -0.000000 19.094519
LeftHand -12.550228 0.000000 -11.210960
LeftHandThumb1 -26.253704 0.000000 33.147579
RightShoulder -41.871729 -51.293937 17.266370
RightArm 44.998214 -7.204565 63.483452
RightForeArm 4.715275 -0.000000 23.093600
RightHand -0.560108 0.000000 11.899864
RightHandThumb1 -24.326973 -0.000000 -32.862282
LeftUpLeg -23.961637 -0.809510 -12.064769
LeftLeg 15.223786 -0.000000 -0.000000
LeftFoot -9.797140 9.109492 -0.407140
LeftToeBase 2.388113 -0.000000 -0.000000
RightUpLeg -50.561275 0.493025 -12.719120
RightLeg 57.708836 -0.000000 -0.000000
RightFoot -14.044960 -23.739894 16.207582
RightToeBase -2.505396 -0.000000 0.000000
132
root 7.270401 36.087619 2.742333 9.885118 -62.175722 -347.794041
Spine -21.866283 -6.167046 -3.715698
Head 20.240207 15.784193 7.130545
LeftShoulder -11.026487 23.134042 14.656205
LeftArm 13.070232 1.771303 -77.902624
LeftForeArm 15.689042 -0.000000 19.208168
LeftHand -12.631810 0.000000 -10.996632
LeftHandThumb1 -26.253704 0.000000 33.147579
RightShoulder -41.839784 -51.223535 17.292209
RightArm 45.103677 -7.676051 63.213931
RightForeArm 4.627413 -0.000000 23.186848
RightHand -0.604738 -0.000000 11.991464
RightHandThumb1 -24.326973 -0.000000 -32.862282
LeftUpLeg -23.629342 -0.678163 -12.248390
LeftLeg 15.202510 -0.000000 -0.000000
LeftFoot -9.676478 9.313781 -0.257913
LeftToeBase 2.263984 -0.000000 -0.000000
RightUpLeg -50.901994 0.685743 -12.397226
RightLeg 57.733794 -0.000000 -0.000000
RightFoot -13.993907 -23.637426 15.908815
RightToeBase -2.444244 -0.000000 0.000000
133
root 7.281456 36.094437 2.778748 9.685140 -62.033574 -347.872657
Spine -21.564707 -6.278490 -3.559975
Head 20.337836 16.094746 7.011815
LeftShoulder -11.065595 23.065170 14.582039
LeftArm 13.071055 1.524690 -77.967483
LeftForeArm 15.562188 -0.000000 19.388399
LeftHand -12.697731 -0.000000 -10.949112
LeftHandThumb1 -26.253704 0.000000 33.147579
RightShoulder -41.834300 -51.171531 17.309579
RightArm 45.226906 -8.111524 63.004558
RightForeArm 4.611156 -0.000000 23.260207
RightHand -0.637694 -0.000000 12.119372
RightHandThumb1 -24.326973 -0.000000 -32.862282
LeftUpLeg -23.353800 -0.568822 -12.402593
LeftLeg 15.211296 -0.000000 -0.000000
LeftFoot -9.550793 9.500839 -0.125383
LeftToeBase 2.097869 -0.000000 -0.000000
RightUpLeg -51.293034 0.878804 -12.061531
RightLeg 57.777539 -0.000000 -0.000000
RightFoot -14.090068 -23.250374 15.818884
RightToeBase -2.609465 -0.000000 0.000000
134
root 7.293356 36.097846 2.817719 9.374174 -61.951823 -347.914588
Spine -21.173934 -6.347243 -3.437262
Head 20.410250 16.390570 6.899968
LeftShoulder -11.081841 22.992268 14.553703
LeftArm 13.086917 1.304114 -78.102249
LeftForeArm 15.506102 0.000000 19.543415
LeftHand -12.772055 -0.000000 -10.851429
LeftHandThumb1 -26.253704 0.000000 33.147579
RightShoulder -41.757188 -51.133692 17.267337
RightArm 45.294110 -8.496750 62.859350
RightForeArm 4.645683 0.000000 23.429780
RightHand -0.795093 -0.000000 12.316257
RightHandThumb1 -24.326973 -0.000000 -32.862282
LeftUpLeg -22.988358 -0.348157 -12.605471
LeftLeg 15.185701 -0.000000 -0.000000
LeftFoot -9.365416 9.709746 0.156079
LeftToeBase 1.734986 -0.000000 -0.000000
RightUpLeg -51.640752 1.104395 -11.732800
RightLeg 57.859759 -0.000000 -0.000000
RightFoot -14.193883 -22.901454 15.658111
RightToeBase -2.661304 -0.000000 0.000000
135
root 7.304640 36.098643 2.855996 9.042987 -61.941589 -347.974983
Spine -20.732063 -6.331325 -3.345171
Head 20.472621 16.686362 6.816964
LeftShoulder -11.026038 22.884697 14.607488
LeftArm 13.069376 1.071006 -78.304841
LeftForeArm 15.329373 -0.000000 19.649827
LeftHand -12.864840 -0.000000 -10.615050
LeftHandThumb1 -26.253704 0.000000 33.147579
RightShoulder -41.717938 -51.092548 17.275085
RightArm 45.386847 -8.889067 62.695798
RightForeArm 4.651565 0.000000 23.525185
RightHand -0.695886 -0.000000 12.345381
RightHandThumb1 -24.326973 -0.000000 -32.862282
LeftUpLeg -22.590606 -0.063234 -12.775091
LeftLeg 15.151321 -0.000000 -0.000000
LeftFoot -9.376374 9.807684 0.184863
LeftToeBase 1.819731 -0.000000 -0.000000
RightUpLeg -51.981129 1.377875 -11.378257
RightLeg 57.905569 -0.000000 -0.000000
RightFoot -14.308659 -22.617395 15.671335
RightToeBase -2.938395 -0.000000 0.000000
136
root 7.319319 36.099184 2.887015 8.807186 -61.907156 -348.066972
Spine -20.356097 -6.359520 -3.229285
Head 20.503475 16.995612 6.748041
LeftShoulder -11.067890 22.810764 14.642081
LeftArm 13.185473 1.109997 -78.424611
LeftForeArm 14.994777 -0.000000 19.651050
LeftHand -12.811570 0.000000 -10.323002
LeftHandThumb1 -26.253704 0.000000 33.147579
RightShoulder -41.640398 -51.058100 17.246757
RightArm 45.445392 -9.301396 62.537678
RightForeArm 4.585906 -0.000000 23.631232
RightHand -0.567581 0.000000 12.271596
RightHandThumb1 -24.326973 -0.000000 -32.862282
LeftUpLeg -22.238247 0.115665 -12.892151
LeftLeg 15.050149 -0.000000 -0.000000
LeftFoot -9.368268 9.965902 0.203226
LeftToeBase 1.911341 -0.000000 -0.000000
RightUpLeg -52.387410 1.636279 -11.015569
RightLeg 57.973930 -0.000000 -0.000000
RightFoot -14.367392 -22.409031 15.578426
RightToeBase -2.972308 -0.000000 0.000000
137
root 7.338129 36.097433 2.910144 8.732465 -61.874720 -348.264514
Spine -20.048586 -6.374746 -3.062240
Head 20.529260 17.298494 6.690509
LeftShoulder -11.025650 22.738764 14.718973
LeftArm 13.244523 1.172767 -78.572847
LeftForeArm 14.676989 -0.000000 19.716451
LeftHand -12.841341 -0.000000 -10.076333
LeftHandThumb1 -26.253704 0.000000 33.147579
RightShoulder -41.624787 -51.061661 17.270673
RightArm 45.555943 -9.665427 62.397047
RightForeArm 4.565852 0.000000 23.727655
RightHand -0.471201 0.000000 12.200664
RightHandThumb1 -24.326973 -0.000000 -32.862282
LeftUpLeg -21.961401 0.253399 -12.917863
LeftLeg 14.944048 -0.000000 -0.000000
LeftFoot -9.374041 10.067838 0.257674
LeftToeBase 1.856661 -0.000000 -0.000000
RightUpLeg -52.867422 1.912477 -10.592142
RightLeg 58.003229 -0.000000 -0.000000
RightFoot -14.474399 -22.206432 15.771299
RightToeBase -3.015221 -0.000000 0.000000
138
root 7.352914 36.090315 2.929920 8.647144 -61.824621 -348.538594
Spine -19.636411 -6.390518 -2.884406
Head 20.523150 17.593767 6.680789
LeftShoulder -10.945045 22.614638 14.834796
LeftArm 13.279613 1.232726 -78.737413
LeftForeArm 14.461950 0.000000 19.769043
LeftHand -12.807936 -0.000000 -9.953308
LeftHandThumb1 -26.253704 0.000000 33.147579
RightShoulder -41.618083 -51.028549 17.302805
RightArm 45.615838 -9.985904 62.277664
RightForeArm 4.624795 -0.000000 23.935303
RightHand -0.642619 -0.000000 12.258074
RightHandThumb1 -24.326973 -0.000000 -32.862282
LeftUpLeg -21.569235 0.206247 -12.815855
LeftLeg 14.821690 -0.000000 -0.000000
LeftFoot -9.488846 10.156908 0.192806
LeftToeBase 2.578390 -0.000000 -0.000000
RightUpLeg -53.257866 2.195099 -10.120541
RightLeg 58.049227 -0.000000 -0.000000
RightFoot -14.592514 -21.955564 15.854785
RightToeBase -3.116227 -0.000000 0.000000
139
root 7.371170 36.078957 2.940913 8.774134 -61.758194 -348.936995
Spine -19.339139 -6.438157 -2.626906
Head 20.506437 17.886832 6.675736
LeftShoulder -10.871893 22.533839 14.950791
LeftArm 13.312324 1.389240 -78.880384
LeftForeArm 14.302321 -0.000000 19.899453
LeftHand -12.788308 -0.000000 -9.835164
LeftHandThumb1 -26.253704 0.000000 33.147579
RightShoulder -41.579439 -50.997146 17.277295
RightArm 45.651335 -10.317084 62.169739
RightForeArm 4.663539 -0.000000 24.094822
RightHand -0.521306 -0.000000 12.284147
RightHandThumb1 -24.326973 -0.000000 -32.862282
LeftUpLeg -21.327441 0.245713 -12.657911
LeftLeg 14.760214 -0.000000 -0.000000
LeftFoot -9.632024 10.106778 0.266152
LeftToeBase 2.493401 -0.000000 -0.000000
RightUpLeg -53.760832 2.475359 -9.599862
RightLeg 58.084442 -0.000000 -0.000000
RightFoot -14.756105 -21.583391 16.215894
RightToeBase -3.235892 -0.000000 0.000000
140
root 7.390610 36.061954 2.950845 8.830332 -61.706202 -349.320671
Spine -18.953546 -6.481091 -2.410534
Head 20.392879 18.181408 6.732016
LeftShoulder -10.797678 22.424284 15.085805
LeftArm 13.341016 1.599284 -79.002461
LeftForeArm 14.137848 -0.000000 20.072730
LeftHand -12.815162 -0.000000 -9.758202
LeftHandThumb1 -26.253704 0.000000 33.147579
RightShoulder -41.514596 -50.960156 17.268332
RightArm 45.657189 -10.582627 62.098697
RightForeArm 4.658447 -0.000000 24.322451
RightHand -0.546709 -0.000000 12.321155
RightHandThumb1 -24.326973 -0.000000 -32.862282
LeftUpLeg -20.998830 0.185838 -12.447319
LeftLeg 14.638869 -0.000000 -0.000000
LeftFoot -9.908977 10.068530 0.086780
LeftToeBase 2.863637 -0.000000 -0.000000
RightUpLeg -54.218686 2.723475 -9.069976
RightLeg 58.135264 -0.000000 -0.000000
RightFoot -14.786475 -21.174153 16.377639
RightToeBase -3.624101 -0.000000 0.000000
